<svg width="420" height="294" viewBox="0 0 420 294" fill="none" xmlns="http://www.w3.org/2000/svg">
<path fill-rule="evenodd" clip-rule="evenodd" d="M4.06935 153.882C3.9897 152.375 4.94592 150.853 6.93788 149.703L203.065 36.4692C206.896 34.2574 213.107 34.2574 216.938 36.4692L413.065 149.703C414.904 150.765 415.86 152.143 415.934 153.534V174.559C415.86 173.168 414.904 171.79 413.065 170.729L216.938 57.4945C213.107 55.2827 206.896 55.2827 203.065 57.4945L6.93788 170.729C4.94592 171.879 3.9897 173.4 4.06935 174.907V153.882Z" fill="#6580E1"/>
<path fill-rule="evenodd" clip-rule="evenodd" d="M415.934 153.534C416.014 155.041 415.057 156.563 413.065 157.713L216.938 270.947C213.107 273.159 206.896 273.159 203.065 270.947L6.93792 157.713C5.09906 156.651 4.14292 155.273 4.0694 153.882V174.907C4.14292 176.298 5.09906 177.676 6.93792 178.738L203.065 291.972C206.896 294.184 213.107 294.184 216.938 291.972L413.065 178.738C415.057 177.588 416.014 176.066 415.934 174.559V153.534Z" fill="url(#paint0_linear_50_376)"/>
<path d="M203.073 36.4644C206.9 34.2552 213.103 34.2552 216.93 36.4644L413.073 149.708C416.9 151.917 416.9 155.499 413.073 157.708L216.93 270.951C213.103 273.161 206.9 273.161 203.073 270.951L6.92978 157.708C3.10344 155.499 3.10345 151.917 6.92979 149.708L203.073 36.4644Z" fill="url(#paint1_linear_50_376)"/>
<path opacity="0.8" d="M137.317 232.987C198.704 190.298 222.878 204.255 261.151 172.804C289.022 149.904 271.422 139.743 294.734 123.533C313.061 110.788 326.904 118.781 340.354 107.724L299.565 84.1748C281.754 92.7138 267.919 84.7257 244.189 94.3506C214.004 106.592 231.603 116.754 194.711 134.444C144.04 158.738 119.865 144.781 40.3857 177.024L137.317 232.987Z" fill="white"/>
<path d="M137.683 199.404C137.683 199.404 151.882 186.973 163.524 190.676C175.165 194.379 166.272 203.822 145.334 207.75L137.678 199.402L137.683 199.404Z" fill="url(#paint2_linear_50_376)"/>
<path d="M132.302 201.66L139.059 208.959C139.059 208.959 125.244 215.228 119.743 208.911C115.299 203.808 132.307 201.657 132.307 201.657L132.302 201.66Z" fill="url(#paint3_linear_50_376)"/>
<path d="M215.75 162.092C215.75 162.092 229.95 149.66 241.591 153.364C253.233 157.067 244.339 166.509 223.401 170.437L215.745 162.089L215.75 162.092Z" fill="url(#paint4_linear_50_376)"/>
<path d="M210.37 164.347L217.126 171.646C217.126 171.646 203.311 177.915 197.811 171.598C193.366 166.496 210.374 164.344 210.374 164.344L210.37 164.347Z" fill="url(#paint5_linear_50_376)"/>
<path d="M166.795 168.037C166.795 168.037 190.974 162.854 187.351 155.471C183.728 148.087 165.789 150.96 154.438 161.851L166.798 168.04L166.795 168.037Z" fill="url(#paint6_linear_50_376)"/>
<path d="M161.775 170.555L150.982 165.108C150.982 165.108 137.288 171.464 146.707 175.983C154.315 179.634 161.781 170.553 161.781 170.553L161.775 170.555Z" fill="url(#paint7_linear_50_376)"/>
<path d="M247.564 126.068C247.564 126.068 271.743 120.885 268.12 113.502C264.497 106.118 246.558 108.991 235.208 119.882L247.567 126.071L247.564 126.068Z" fill="url(#paint8_linear_50_376)"/>
<path d="M242.544 128.586L231.752 123.139C231.752 123.139 218.057 129.496 227.476 134.014C235.084 137.665 242.55 128.584 242.55 128.584L242.544 128.586Z" fill="url(#paint9_linear_50_376)"/>
<path fill-rule="evenodd" clip-rule="evenodd" d="M93.9597 75.6671C92.707 76.3047 91.9247 77.7848 91.9247 79.9276V134.953L104.848 142.415L108.079 140.549L95.1555 133.088V78.0623C95.1555 75.9195 95.9378 74.4394 97.1905 73.8018L93.9597 75.6671Z" fill="#AC9762"/>
<path fill-rule="evenodd" clip-rule="evenodd" d="M104.848 142.415V107.127L108.079 105.262V140.549L104.848 142.415Z" fill="url(#paint10_linear_50_376)"/>
<path fill-rule="evenodd" clip-rule="evenodd" d="M104.848 107.127L114.432 105.81C114.591 105.788 114.738 105.743 114.87 105.678L118.101 103.812C117.968 103.878 117.822 103.923 117.663 103.944L108.079 105.262L104.848 107.127Z" fill="#AC9762"/>
<path fill-rule="evenodd" clip-rule="evenodd" d="M114.87 105.678C115.84 105.198 116.071 103.611 115.348 101.845C114.526 99.8374 112.784 98.3581 111.456 98.5405L104.848 99.449V87.3887C104.848 83.268 101.955 78.2573 98.3863 76.197C96.6733 75.208 95.1161 75.0786 93.9597 75.6671L97.1905 73.8018C98.3469 73.2133 99.9041 73.3428 101.617 74.3317C105.186 76.3921 108.079 81.4028 108.079 85.5234V97.5837L114.687 96.6752C116.014 96.4928 117.757 97.9721 118.579 99.9794C119.302 101.746 119.071 103.332 118.101 103.812L114.87 105.678Z" fill="#AC9762"/>
<path d="M98.3863 76.197C94.8177 74.1367 91.9247 75.8069 91.9247 79.9276V134.953L104.848 142.415V107.127L114.432 105.81C115.76 105.627 116.17 103.852 115.348 101.845C114.526 99.8374 112.784 98.3581 111.456 98.5405L104.848 99.449V87.3887C104.848 83.268 101.955 78.2573 98.3863 76.197Z" fill="#B3A685"/>
<path fill-rule="evenodd" clip-rule="evenodd" d="M90.7315 77.5314C89.4788 78.169 88.6965 79.6491 88.6965 81.7919V136.818L101.62 144.279L104.85 142.414L91.9273 134.953V79.9266C91.9273 77.7838 92.7096 76.3037 93.9623 75.6661L90.7315 77.5314Z" fill="#AC9762"/>
<path fill-rule="evenodd" clip-rule="evenodd" d="M101.62 144.279V108.991L104.851 107.126V142.414L101.62 144.279Z" fill="url(#paint11_linear_50_376)"/>
<path fill-rule="evenodd" clip-rule="evenodd" d="M101.62 108.991L111.204 107.674C111.363 107.652 111.509 107.607 111.642 107.542L114.873 105.677C114.74 105.742 114.594 105.787 114.435 105.809L104.851 107.126L101.62 108.991Z" fill="#AC9762"/>
<path fill-rule="evenodd" clip-rule="evenodd" d="M111.642 107.542C112.612 107.062 112.843 105.475 112.12 103.709C111.298 101.702 109.556 100.222 108.228 100.405L101.62 101.313V89.253C101.62 85.1324 98.7269 80.1217 95.1583 78.0613C93.4454 77.0724 91.8881 76.9429 90.7318 77.5314L93.9625 75.6661C95.1189 75.0776 96.6761 75.2071 98.3891 76.196C101.958 78.2564 104.851 83.2671 104.851 87.3877V99.448L111.459 98.5395C112.787 98.3571 114.529 99.8364 115.351 101.844C116.074 103.61 115.843 105.197 114.873 105.677L111.642 107.542Z" fill="#AC9762"/>
<path d="M95.1579 78.0613C91.5893 76.001 88.6964 77.6712 88.6964 81.7919V136.818L101.619 144.279V108.991L111.204 107.674C112.531 107.491 112.941 105.716 112.119 103.709C111.298 101.702 109.555 100.222 108.228 100.405L101.619 101.313V89.253C101.619 85.1324 98.7266 80.1217 95.1579 78.0613Z" fill="#B3A685"/>
<path fill-rule="evenodd" clip-rule="evenodd" d="M119.646 127.443C114.564 130.747 107.349 130.477 99.3462 125.856C83.9566 116.971 71.4808 95.3627 71.4808 77.5921C71.4808 63.3758 77.6839 26.2434 89.4698 17.3311L100.777 10.8026C88.9916 19.7149 82.7885 56.8473 82.7885 71.0636C82.7885 88.8342 95.2643 110.443 110.654 119.328C118.657 123.948 125.871 124.218 130.954 120.914L119.646 127.443Z" fill="url(#paint12_linear_50_376)"/>
<path fill-rule="evenodd" clip-rule="evenodd" d="M89.4699 17.3311C92.4164 15.1031 95.7118 14.6387 99.3464 16.7372C117.519 27.2294 127.212 91.9979 127.212 109.768C127.212 118.298 124.337 124.393 119.646 127.443L130.954 120.914C135.645 117.865 138.519 111.77 138.519 103.24C138.519 85.4694 128.827 20.7009 110.654 10.2087C107.019 8.11025 103.724 8.57456 100.778 10.8026L89.4699 17.3311Z" fill="url(#paint13_linear_50_376)"/>
<path d="M127.211 109.768C127.211 127.539 114.736 134.742 99.3461 125.856C83.9565 116.971 71.4807 95.3625 71.4807 77.5921C71.4807 59.8217 81.173 6.24496 99.3461 16.7372C117.519 27.2294 127.211 91.9979 127.211 109.768Z" fill="url(#paint14_linear_50_376)"/>
<path fill-rule="evenodd" clip-rule="evenodd" d="M87.5054 79.3939C86.2527 80.0315 85.4705 81.5116 85.4705 83.6544V138.68L98.3935 146.141L101.624 144.276L88.7012 136.815V81.7891C88.7012 79.6463 89.4835 78.1662 90.7362 77.5286L87.5054 79.3939Z" fill="#AC9762"/>
<path fill-rule="evenodd" clip-rule="evenodd" d="M98.3935 146.141V110.854L101.624 108.989V144.276L98.3935 146.141Z" fill="url(#paint15_linear_50_376)"/>
<path fill-rule="evenodd" clip-rule="evenodd" d="M98.3935 110.854L107.978 109.537C108.137 109.515 108.283 109.47 108.416 109.404L111.646 107.539C111.514 107.604 111.368 107.649 111.209 107.671L101.624 108.989L98.3935 110.854Z" fill="#AC9762"/>
<path fill-rule="evenodd" clip-rule="evenodd" d="M108.416 109.404C109.386 108.925 109.617 107.338 108.894 105.571C108.072 103.564 106.33 102.085 105.002 102.267L98.3936 103.176V91.1155C98.3936 86.9948 95.5007 81.9842 91.9321 79.9238C90.2192 78.9348 88.6619 78.8054 87.5056 79.3939L90.7363 77.5286C91.8927 76.9401 93.4499 77.0696 95.1629 78.0585C98.7315 80.1189 101.624 85.1296 101.624 89.2502V101.311L108.233 100.402C109.56 100.22 111.303 101.699 112.124 103.706C112.848 105.473 112.617 107.059 111.646 107.539L108.416 109.404Z" fill="url(#paint16_linear_50_376)"/>
<path d="M91.932 79.9237C88.3634 77.8634 85.4705 79.5336 85.4705 83.6543V138.68L98.3935 146.141V110.854L107.978 109.536C109.305 109.354 109.715 107.579 108.894 105.571C108.072 103.564 106.329 102.085 105.002 102.267L98.3935 103.176V91.1155C98.3935 86.9948 95.5006 81.9841 91.932 79.9237Z" fill="url(#paint17_linear_50_376)"/>
<path fill-rule="evenodd" clip-rule="evenodd" d="M250.749 245.156L189.714 209.917C189.714 206.96 190.73 204.843 192.408 203.742L203.492 197.343C201.814 198.444 200.798 200.561 200.798 203.518L261.833 238.756L250.749 245.156Z" fill="url(#paint18_linear_50_376)"/>
<path fill-rule="evenodd" clip-rule="evenodd" d="M192.408 203.742C193.956 202.726 196.069 202.575 198.468 203.427L209.552 197.028C207.153 196.176 205.04 196.327 203.492 197.343L192.408 203.742Z" fill="url(#paint19_linear_50_376)"/>
<path fill-rule="evenodd" clip-rule="evenodd" d="M198.468 203.427C198.466 203.345 198.466 203.263 198.466 203.181C198.466 199.795 199.62 197.409 201.469 196.326L212.553 189.927C210.704 191.01 209.55 193.396 209.55 196.781C209.55 196.863 209.55 196.945 209.552 197.028L198.468 203.427Z" fill="url(#paint20_linear_50_376)"/>
<path fill-rule="evenodd" clip-rule="evenodd" d="M201.469 196.326C203.176 195.327 205.474 195.438 208.002 196.897C208.752 197.33 209.482 197.859 210.182 198.465L221.266 192.066C220.566 191.459 219.836 190.931 219.086 190.498C216.558 189.038 214.26 188.928 212.553 189.927L201.469 196.326Z" fill="url(#paint21_linear_50_376)"/>
<path fill-rule="evenodd" clip-rule="evenodd" d="M210.182 198.465C210.64 197.185 211.398 196.212 212.386 195.578L223.47 189.179C222.482 189.812 221.724 190.785 221.266 192.066L210.182 198.465Z" fill="url(#paint22_linear_50_376)"/>
<path fill-rule="evenodd" clip-rule="evenodd" d="M212.386 195.578C214.485 194.232 217.623 194.42 221.129 196.444C227.45 200.093 232.573 208.329 232.573 214.84C236.831 217.298 240.436 222.829 241.662 228.297C246.825 232.247 250.749 239.342 250.749 245.156L261.833 238.756C261.833 232.943 257.909 225.847 252.746 221.898C251.52 216.429 247.915 210.899 243.657 208.441C243.657 201.93 238.534 193.694 232.213 190.045C228.707 188.02 225.569 187.833 223.47 189.179L212.386 195.578Z" fill="url(#paint23_linear_50_376)"/>
<path d="M232.573 214.84C236.831 217.298 240.436 222.829 241.662 228.297C246.825 232.247 250.749 239.342 250.749 245.156L189.715 209.917C189.715 204.23 193.471 201.652 198.468 203.427C198.467 203.345 198.466 203.263 198.466 203.181C198.466 196.67 202.736 193.856 208.002 196.897C208.753 197.33 209.482 197.859 210.183 198.465C211.614 194.463 215.973 193.467 221.129 196.444C227.45 200.093 232.573 208.329 232.573 214.84Z" fill="#B2D6AD"/>
<path fill-rule="evenodd" clip-rule="evenodd" d="M204.221 110.732L153.599 81.506C153.599 78.7971 154.529 76.8583 156.066 75.8498L166.244 69.9734C164.707 70.982 163.777 72.9208 163.777 75.6296L214.399 104.856L204.221 110.732Z" fill="#8BC183"/>
<path fill-rule="evenodd" clip-rule="evenodd" d="M161.617 75.5611C161.615 75.4857 161.615 75.4105 161.615 75.3354C161.615 72.2342 162.672 70.0489 164.366 69.0572L174.544 63.1808C172.85 64.1726 171.793 66.3579 171.793 69.459C171.793 69.5342 171.793 69.6093 171.795 69.6848L161.617 75.5611Z" fill="#8BC183"/>
<path fill-rule="evenodd" clip-rule="evenodd" d="M172.347 71.0165C172.766 69.8432 173.46 68.9521 174.365 68.3719L184.543 62.4956C183.638 63.0758 182.944 63.9669 182.525 65.1402L172.347 71.0165Z" fill="#8BC183"/>
<path d="M178.189 67.6436L172.347 71.0164C171.95 70.6724 171.542 70.3559 171.126 70.0706L161.617 75.5611C159.645 74.8607 157.885 74.9001 156.519 75.5881L166.244 69.9734C167.174 69.363 168.326 69.0934 169.629 69.2002C167.621 68.2436 165.805 68.2376 164.411 69.0308L174.544 63.1808C176.107 62.2653 178.212 62.3669 180.528 63.7038C180.836 63.8814 181.14 64.0766 181.439 64.2878L184.543 62.4956C186.466 61.2628 189.34 61.4344 192.552 63.2885C198.341 66.6309 200.782 71.788 201.917 77.4458C205.817 79.6972 209.963 87.3321 208.519 91.6202C214.399 95.0149 214.399 104.856 214.399 104.856L204.221 110.732C204.221 110.732 204.221 100.891 198.341 97.4965C199.785 93.2084 195.638 85.5735 191.739 83.3221C190.604 77.6643 188.163 72.5072 182.373 69.1648C180.886 68.3059 179.47 67.8081 178.189 67.6436Z" fill="url(#paint24_linear_50_376)"/>
<path d="M164.411 69.0308L164.366 69.0571C164.381 69.0482 164.396 69.0394 164.411 69.0308Z" fill="url(#paint25_linear_50_376)"/>
<path d="M156.066 75.8497L156.519 75.5881C156.363 75.6669 156.212 75.7541 156.066 75.8497Z" fill="url(#paint26_linear_50_376)"/>
<path d="M191.739 83.3221C195.639 85.5735 199.785 93.2085 198.341 97.4965C204.221 100.891 204.221 110.732 204.221 110.732L153.599 81.5059C153.599 76.2966 157.039 73.9351 161.617 75.5611C161.615 75.4857 161.615 75.4105 161.615 75.3354C161.615 69.3716 165.526 66.7949 170.35 69.5802C171.037 69.9768 171.705 70.4608 172.347 71.0165C173.658 67.3502 177.651 66.4382 182.374 69.1649C188.163 72.5072 190.604 77.6643 191.739 83.3221Z" fill="#B2D6AD"/>
<defs>
<linearGradient id="paint0_linear_50_376" x1="-11.5556" y1="153.534" x2="160.319" y2="112.799" gradientUnits="userSpaceOnUse">
<stop stop-color="#D6DBD6"/>
<stop offset="1" stop-color="#BFD2BC"/>
</linearGradient>
<linearGradient id="paint1_linear_50_376" x1="210.27" y1="202.509" x2="334.447" y2="-227.651" gradientUnits="userSpaceOnUse">
<stop stop-color="#F0F5EE"/>
<stop offset="1" stop-color="#B2D6AD"/>
</linearGradient>
<linearGradient id="paint2_linear_50_376" x1="286.804" y1="101.065" x2="144.489" y2="192.604" gradientUnits="userSpaceOnUse">
<stop stop-color="#F1F8F0"/>
<stop offset="0.983585" stop-color="#3C9B70"/>
</linearGradient>
<linearGradient id="paint3_linear_50_376" x1="286.804" y1="101.065" x2="144.489" y2="192.604" gradientUnits="userSpaceOnUse">
<stop stop-color="#F1F8F0"/>
<stop offset="0.983585" stop-color="#3C9B70"/>
</linearGradient>
<linearGradient id="paint4_linear_50_376" x1="286.804" y1="101.065" x2="144.489" y2="192.604" gradientUnits="userSpaceOnUse">
<stop stop-color="#F1F8F0"/>
<stop offset="0.983585" stop-color="#3C9B70"/>
</linearGradient>
<linearGradient id="paint5_linear_50_376" x1="286.804" y1="101.065" x2="144.489" y2="192.604" gradientUnits="userSpaceOnUse">
<stop stop-color="#F1F8F0"/>
<stop offset="0.983585" stop-color="#3C9B70"/>
</linearGradient>
<linearGradient id="paint6_linear_50_376" x1="286.804" y1="101.065" x2="144.489" y2="192.604" gradientUnits="userSpaceOnUse">
<stop stop-color="#F1F8F0"/>
<stop offset="0.983585" stop-color="#3C9B70"/>
</linearGradient>
<linearGradient id="paint7_linear_50_376" x1="286.804" y1="101.065" x2="144.489" y2="192.604" gradientUnits="userSpaceOnUse">
<stop stop-color="#F1F8F0"/>
<stop offset="0.983585" stop-color="#3C9B70"/>
</linearGradient>
<linearGradient id="paint8_linear_50_376" x1="286.804" y1="101.065" x2="144.489" y2="192.604" gradientUnits="userSpaceOnUse">
<stop stop-color="#F1F8F0"/>
<stop offset="0.983585" stop-color="#3C9B70"/>
</linearGradient>
<linearGradient id="paint9_linear_50_376" x1="286.804" y1="101.065" x2="144.489" y2="192.604" gradientUnits="userSpaceOnUse">
<stop stop-color="#F1F8F0"/>
<stop offset="0.983585" stop-color="#3C9B70"/>
</linearGradient>
<linearGradient id="paint10_linear_50_376" x1="106.463" y1="105.262" x2="106.463" y2="142.415" gradientUnits="userSpaceOnUse">
<stop stop-color="#AC9762"/>
<stop offset="1" stop-color="#AD8241"/>
</linearGradient>
<linearGradient id="paint11_linear_50_376" x1="103.235" y1="107.126" x2="103.235" y2="144.279" gradientUnits="userSpaceOnUse">
<stop stop-color="#AC9762"/>
<stop offset="1" stop-color="#AD8241"/>
</linearGradient>
<linearGradient id="paint12_linear_50_376" x1="101.217" y1="10.8026" x2="101.217" y2="129.662" gradientUnits="userSpaceOnUse">
<stop offset="0.345" stop-color="#339268"/>
<stop offset="0.85" stop-color="#178654"/>
</linearGradient>
<linearGradient id="paint13_linear_50_376" x1="135.83" y1="9.01007" x2="135.33" y2="127.152" gradientUnits="userSpaceOnUse">
<stop stop-color="#2BC07C"/>
<stop offset="0.54" stop-color="#339268"/>
<stop offset="1" stop-color="#20A568"/>
</linearGradient>
<linearGradient id="paint14_linear_50_376" x1="99.3461" y1="16.7372" x2="52.0961" y2="98.5766" gradientUnits="userSpaceOnUse">
<stop stop-color="#79CD8C"/>
<stop offset="1" stop-color="#23B573"/>
</linearGradient>
<linearGradient id="paint15_linear_50_376" x1="100.009" y1="108.989" x2="100.009" y2="146.141" gradientUnits="userSpaceOnUse">
<stop stop-color="#AC9762"/>
<stop offset="1" stop-color="#AD8241"/>
</linearGradient>
<linearGradient id="paint16_linear_50_376" x1="100.027" y1="77.176" x2="100.027" y2="109.404" gradientUnits="userSpaceOnUse">
<stop stop-color="#AC9762"/>
<stop offset="1" stop-color="#AD8241"/>
</linearGradient>
<linearGradient id="paint17_linear_50_376" x1="97.3938" y1="83.0771" x2="70.3361" y2="129.942" gradientUnits="userSpaceOnUse">
<stop stop-color="#C5AE74"/>
<stop offset="1" stop-color="#C69E63"/>
</linearGradient>
<linearGradient id="paint18_linear_50_376" x1="225.774" y1="197.343" x2="239.107" y2="245.561" gradientUnits="userSpaceOnUse">
<stop stop-color="#8BC183"/>
<stop offset="1" stop-color="#6AB35F"/>
</linearGradient>
<linearGradient id="paint19_linear_50_376" x1="200.98" y1="196.474" x2="202.333" y2="204.125" gradientUnits="userSpaceOnUse">
<stop stop-color="#8BC183"/>
<stop offset="1" stop-color="#6AB35F"/>
</linearGradient>
<linearGradient id="paint20_linear_50_376" x1="205.51" y1="189.927" x2="210.56" y2="202.564" gradientUnits="userSpaceOnUse">
<stop stop-color="#8BC183"/>
<stop offset="1" stop-color="#6AB35F"/>
</linearGradient>
<linearGradient id="paint21_linear_50_376" x1="211.368" y1="189.273" x2="213.231" y2="198.891" gradientUnits="userSpaceOnUse">
<stop stop-color="#8BC183"/>
<stop offset="1" stop-color="#6AB35F"/>
</linearGradient>
<linearGradient id="paint22_linear_50_376" x1="216.826" y1="189.179" x2="219.535" y2="198.471" gradientUnits="userSpaceOnUse">
<stop stop-color="#8BC183"/>
<stop offset="1" stop-color="#6AB35F"/>
</linearGradient>
<linearGradient id="paint23_linear_50_376" x1="237.11" y1="188.317" x2="261.163" y2="238.488" gradientUnits="userSpaceOnUse">
<stop stop-color="#8BC183"/>
<stop offset="1" stop-color="#6AB35F"/>
</linearGradient>
<linearGradient id="paint24_linear_50_376" x1="185.232" y1="61.7061" x2="201.847" y2="109.104" gradientUnits="userSpaceOnUse">
<stop stop-color="#8BC183"/>
<stop offset="1" stop-color="#6AB35F"/>
</linearGradient>
<linearGradient id="paint25_linear_50_376" x1="185.232" y1="61.7061" x2="201.847" y2="109.104" gradientUnits="userSpaceOnUse">
<stop stop-color="#8BC183"/>
<stop offset="1" stop-color="#6AB35F"/>
</linearGradient>
<linearGradient id="paint26_linear_50_376" x1="185.232" y1="61.7061" x2="201.847" y2="109.104" gradientUnits="userSpaceOnUse">
<stop stop-color="#8BC183"/>
<stop offset="1" stop-color="#6AB35F"/>
</linearGradient>
</defs>
</svg>
